# xmcd
#
# Track frame offsets: 
#        182
#        12980
#        31090
#        48170
#        66225
#        79610
#        100512
#        115850
#        131267
#        148085
#
# Disc length: 2144 seconds
#
# Revision: 2
# Processed by: cddbd v1.4PL0 Copyright (c) Steve Scherf et al.
# Submitted via: ExactAudioCopy v0.90b4
#
DISCID=75085e0a
DTITLE=Ray Stevens - Classic Ray Stevens
DYEAR=1993
DGENRE=Comedy
TTITLE0=If Ten Percent Is Good Enough For Jesus (It Ought to Be Enough
TTITLE0=For Uncle Sam)
TTITLE1=The Higher Education of Old Blue
TTITLE2=The Bricklayer's Song
TTITLE3=Little League
TTITLE4=Meanwhile
TTITLE5=Super Cop
TTITLE6=If You and Yo' Folks Like Me and My Folks
TTITLE7=The All American Two- Week Summer Family Vacation
TTITLE8=The Balled of Jake McClusky
TTITLE9=The Motel Song
EXTD=
EXTT0=
EXTT1=
EXTT2=
EXTT3=
EXTT4=
EXTT5=
EXTT6=
EXTT7=
EXTT8=
EXTT9=
PLAYORDER=
